# xmcd
#
# Track frame offsets: 
#        150
#        46006
#        67945
#        99308
#        189416
#        213288
#
# Disc length: 3013 seconds
#
# Revision: 0
# Processed by: cddbd v1.5.2PL0 Copyright (c) Steve Scherf et al.
# Submitted via: ExactAudioCopyFreeDBPlugin 1.0
#
DISCID=430bc306
DTITLE=Zoe, Layla - Live At Spirit Of 66 - CD 2
DYEAR=2015
DGENRE=Blues
TTITLE0=The Lily
TTITLE1=Why You So Afraid
TTITLE2=Never Met A Man Like You
TTITLE3=It's A Man's World
TTITLE4=Yer Blues
TTITLE5=Let It Be
EXTD=
EXTT0=
EXTT1=
EXTT2=
EXTT3=
EXTT4=
EXTT5=
PLAYORDER=
